Coordinates
version=1
nRows=16
nColumns=22
inDegrees=yes

Units are S.I. units (second, meters, Newtons, ...)
If the header above contains a line with 'inDegrees', this indicates whether rotational values are in degrees (yes) or radians (no).

endheader
time	pelvis_tilt	pelvis_list	pelvis_rotation	pelvis_tx	pelvis_ty	pelvis_tz	hip_flexion_r	hip_adduction_r	hip_rotation_r	knee_angle_r	ankle_angle_r	subtalar_angle_r	hip_flexion_l	hip_adduction_l	hip_rotation_l	knee_angle_l	ankle_angle_l	subtalar_angle_l	lumbar_extension	lumbar_bending	lumbar_rotation
      1.69000000	     -7.04471808	     -4.45723283	    114.63710481	     -0.78807410	      0.91952997	      0.48159662	     11.75860107	     -7.43481612	     -1.72870901	    -66.50850156	      0.50522459	     -2.61435119	     17.30503188	      6.38694216	      3.88513900	    -25.34507621	      8.42948414	      7.52820663	     -7.48221941	    -12.42891996	     -2.83800734
      1.70000000	     -7.25477589	     -4.24935028	    114.03757092	     -0.79190103	      0.92079938	      0.47406207	     13.60827363	     -7.75034741	     -1.89894827	    -68.23551928	      1.41194240	     -3.37705716	     16.28231695	      6.44698224	      3.43807513	    -25.10354911	      8.79906984	      7.36352733	     -8.03573509	    -12.48325667	     -3.51599115
      1.71000000	     -7.35976587	     -3.99427110	    113.53324109	     -0.79562195	      0.92207957	      0.46648966	     15.34914450	     -7.83792347	     -2.07282638	    -69.58117569	      2.22915203	     -3.91121757	     15.25362990	      6.41862494	      3.12959388	    -24.85264334	      9.19577521	      7.20238218	     -8.57424724	    -12.41494027	     -4.24230269
      1.72000000	     -7.38765484	     -3.69729349	    113.13121210	     -0.79928299	      0.92334134	      0.45896428	     16.97857785	     -7.77351262	     -2.31595187	    -70.56479283	      2.86350551	     -4.40617178	     14.25880637	      6.32361733	      2.88136795	    -24.67430239	      9.62595750	      6.95764000	     -9.12208339	    -12.24185214	     -5.04518749
      1.73000000	     -7.34738213	     -3.40260685	    112.79279039	     -0.80284002	      0.92453843	      0.45142988	     18.54102282	     -7.57905845	     -2.58016647	    -71.19431087	      3.36361418	     -4.43173788	     13.28229952	      6.17416754	      2.69578178	    -24.46944950	     10.03206658	      6.89374698	     -9.61604002	    -12.00516890	     -5.85901301
      1.74000000	     -7.24645895	     -3.07418874	    112.51993759	     -0.80626548	      0.92572035	      0.44392110	     19.97815749	     -7.25060493	     -2.88141656	    -71.45483086	      3.86283221	     -4.45653151	     12.30365798	      5.96703957	      2.59325225	    -24.27231819	     10.40555068	      6.52228155	    -10.11422106	    -11.69665679	     -6.69473867
      1.75000000	     -7.13616155	     -2.77080652	    112.26900091	     -0.80960342	      0.92678087	      0.43642912	     21.36232458	     -6.89834640	     -3.19268562	    -71.39518848	      4.24573898	     -4.23314675	     11.34262086	      5.76322973	      2.48634382	    -24.04939891	     10.78057477	      6.16859312	    -10.56071018	    -11.38883792	     -7.52641084
      1.76000000	     -6.99912085	     -2.48428145	    112.05050339	     -0.81283269	      0.92772155	      0.42892910	     22.66863744	     -6.49912792	     -3.52503921	    -71.00082077	      4.60342960	     -3.87987019	     10.40434212	      5.53981640	      2.38728328	    -23.81498238	     11.12771084	      5.81961276	    -10.96140336	    -11.06671318	     -8.35555787
      1.77000000	     -6.86598095	     -2.22103707	    111.83137776	     -0.81593866	      0.92852615	      0.42140527	     23.90385258	     -6.08135089	     -3.83073590	    -70.29496035	      4.92027759	     -3.42130938	      9.46761748	      5.33122547	      2.29750772	    -23.54452970	     11.47456180	      5.38539348	    -11.31679583	    -10.76756602	     -9.15777533
      1.78000000	     -6.72899400	     -1.98770828	    111.62041842	     -0.81896640	      0.92916715	      0.41384553	     25.06474818	     -5.66239052	     -4.13776640	    -69.28087082	      5.20834768	     -2.95618585	      8.55469308	      5.12699800	      2.17980537	    -23.26117256	     11.82456746	      4.95175721	    -11.61884563	    -10.47833284	     -9.94443179
      1.79000000	     -6.59744073	     -1.78927362	    111.40262210	     -0.82187288	      0.92962702	      0.40621547	     26.15408622	     -5.24308433	     -4.41952936	    -67.97708070	      5.46151626	     -2.50390532	      7.66222518	      4.93563616	      2.03901641	    -22.96020036	     12.18634685	      4.53536434	    -11.86655360	    -10.22243833	    -10.70477276
      1.80000000	     -6.46597286	     -1.61892854	    111.18243473	     -0.82471915	      0.92990470	      0.39851268	     27.15837390	     -4.83504306	     -4.69404043	    -66.39153386	      5.68536626	     -2.07943221	      6.79061956	      4.74971809	      1.85991781	    -22.65263302	     12.58577957	      4.17344625	    -12.06375516	     -9.97788453	    -11.43891343
      1.81000000	     -6.34968676	     -1.47840038	    110.94444409	     -0.82747793	      0.93002228	      0.39068447	     28.06839894	     -4.44816947	     -4.94140965	    -64.53137659	      5.84246979	     -1.62876830	      5.91134016	      4.58732496	      1.67210741	    -22.29933064	     12.99369348	      3.80822373	    -12.21266251	     -9.77270876	    -12.11187792
      1.82000000	     -6.22117594	     -1.36840590	    110.71398031	     -0.83014267	      0.92991906	      0.38277358	     28.88839361	     -4.06837624	     -5.20124326	    -62.40926516	      5.98258078	     -1.31073923	      5.09561938	      4.40935734	      1.41810740	    -22.00787308	     13.46881847	      3.61022973	    -12.31528204	     -9.57513691	    -12.78365653
      1.83000000	     -6.10234487	     -1.26581513	    110.46406063	     -0.83274390	      0.92968575	      0.37471732	     29.57729006	     -3.70883994	     -5.45217798	    -60.02174958	      6.05005878	     -0.97487035	      4.25484943	      4.24441885	      1.16688606	    -21.68295883	     13.94892885	      3.40465041	    -12.39320358	     -9.39123792	    -13.39172239
      1.84000000	     -5.98685890	     -1.18589113	    110.20125235	     -0.83524830	      0.92928092	      0.36652557	     30.15378666	     -3.36985818	     -5.70818132	    -57.38504043	      6.06021230	     -0.67259661	      3.42780349	      4.08742075	      0.90790073	    -21.36023988	     14.43448043	      3.22397059	    -12.43270192	     -9.23002105	    -13.94603515
